<mxfile host="app.diagrams.net" modified="2023-05-03T03:56:07.274Z" agent="Mozilla/5.0 (Macintosh; Intel Mac OS X 10_15_7) AppleWebKit/605.1.15 (KHTML, like Gecko) Version/16.4 Safari/605.1.15" etag="QnVL66ZGkaJuip7Zw8LH" version="21.2.6" type="github">
  <diagram name="Page-1" id="sHlZiXscgo29Kpm3yZey">
    <mxGraphModel dx="1015" dy="956" grid="1" gridSize="10" guides="1" tooltips="1" connect="1" arrows="1" fold="1" page="1" pageScale="1" pageWidth="827" pageHeight="1169" math="0" shadow="0">
      <root>
        <mxCell id="0" />
        <mxCell id="1" parent="0" />
        <mxCell id="h3I3Nr1SINvf36J9Y4_O-1" value="" style="shape=folder;fontStyle=1;spacingTop=10;tabWidth=40;tabHeight=14;tabPosition=left;html=1;whiteSpace=wrap;" vertex="1" parent="1">
          <mxGeometry x="40" y="90" width="790" height="590" as="geometry" />
        </mxCell>
        <mxCell id="h3I3Nr1SINvf36J9Y4_O-2" value="&lt;b&gt;&lt;font style=&quot;font-size: 14px;&quot;&gt;Domain&lt;/font&gt;&lt;/b&gt;" style="text;html=1;strokeColor=none;fillColor=none;align=center;verticalAlign=middle;whiteSpace=wrap;rounded=0;" vertex="1" parent="1">
          <mxGeometry x="434" y="110" width="60" height="30" as="geometry" />
        </mxCell>
        <mxCell id="h3I3Nr1SINvf36J9Y4_O-3" value="" style="shape=folder;fontStyle=1;spacingTop=10;tabWidth=40;tabHeight=14;tabPosition=left;html=1;whiteSpace=wrap;" vertex="1" parent="1">
          <mxGeometry x="500" y="205" width="270" height="360" as="geometry" />
        </mxCell>
        <mxCell id="h3I3Nr1SINvf36J9Y4_O-4" value="SearchCriterias" style="text;html=1;strokeColor=none;fillColor=none;align=center;verticalAlign=middle;whiteSpace=wrap;rounded=0;" vertex="1" parent="1">
          <mxGeometry x="585" y="225" width="100" height="30" as="geometry" />
        </mxCell>
        <mxCell id="h3I3Nr1SINvf36J9Y4_O-5" value="ArticleSearchCriteria" style="swimlane;fontStyle=1;align=center;verticalAlign=top;childLayout=stackLayout;horizontal=1;startSize=26;horizontalStack=0;resizeParent=1;resizeParentMax=0;resizeLast=0;collapsible=1;marginBottom=0;whiteSpace=wrap;html=1;" vertex="1" parent="1">
          <mxGeometry x="545" y="265" width="180" height="88" as="geometry" />
        </mxCell>
        <mxCell id="h3I3Nr1SINvf36J9Y4_O-6" value="+ &amp;lt;&amp;lt;property&amp;gt;&amp;gt; string:name&lt;br&gt;+ &amp;lt;&amp;lt;property&amp;gt;&amp;gt; string:content&lt;br&gt;+ &amp;lt;&amp;lt;property&amp;gt;&amp;gt; User:creator" style="text;strokeColor=none;fillColor=none;align=left;verticalAlign=top;spacingLeft=4;spacingRight=4;overflow=hidden;rotatable=0;points=[[0,0.5],[1,0.5]];portConstraint=eastwest;whiteSpace=wrap;html=1;" vertex="1" parent="h3I3Nr1SINvf36J9Y4_O-5">
          <mxGeometry y="26" width="180" height="54" as="geometry" />
        </mxCell>
        <mxCell id="h3I3Nr1SINvf36J9Y4_O-7" value="" style="line;strokeWidth=1;fillColor=none;align=left;verticalAlign=middle;spacingTop=-1;spacingLeft=3;spacingRight=3;rotatable=0;labelPosition=right;points=[];portConstraint=eastwest;strokeColor=inherit;" vertex="1" parent="h3I3Nr1SINvf36J9Y4_O-5">
          <mxGeometry y="80" width="180" height="8" as="geometry" />
        </mxCell>
        <mxCell id="h3I3Nr1SINvf36J9Y4_O-9" value="CommentSearchCriteria" style="swimlane;fontStyle=1;align=center;verticalAlign=top;childLayout=stackLayout;horizontal=1;startSize=26;horizontalStack=0;resizeParent=1;resizeParentMax=0;resizeLast=0;collapsible=1;marginBottom=0;whiteSpace=wrap;html=1;" vertex="1" parent="1">
          <mxGeometry x="545" y="365" width="185" height="78" as="geometry" />
        </mxCell>
        <mxCell id="h3I3Nr1SINvf36J9Y4_O-10" value="+ &amp;lt;&amp;lt;property&amp;gt;&amp;gt; string:content&lt;br&gt;+ &amp;lt;&amp;lt;property&amp;gt;&amp;gt; User:author" style="text;strokeColor=none;fillColor=none;align=left;verticalAlign=top;spacingLeft=4;spacingRight=4;overflow=hidden;rotatable=0;points=[[0,0.5],[1,0.5]];portConstraint=eastwest;whiteSpace=wrap;html=1;" vertex="1" parent="h3I3Nr1SINvf36J9Y4_O-9">
          <mxGeometry y="26" width="185" height="44" as="geometry" />
        </mxCell>
        <mxCell id="h3I3Nr1SINvf36J9Y4_O-11" value="" style="line;strokeWidth=1;fillColor=none;align=left;verticalAlign=middle;spacingTop=-1;spacingLeft=3;spacingRight=3;rotatable=0;labelPosition=right;points=[];portConstraint=eastwest;strokeColor=inherit;" vertex="1" parent="h3I3Nr1SINvf36J9Y4_O-9">
          <mxGeometry y="70" width="185" height="8" as="geometry" />
        </mxCell>
        <mxCell id="h3I3Nr1SINvf36J9Y4_O-12" value="UserSearchCriteria" style="swimlane;fontStyle=1;align=center;verticalAlign=top;childLayout=stackLayout;horizontal=1;startSize=26;horizontalStack=0;resizeParent=1;resizeParentMax=0;resizeLast=0;collapsible=1;marginBottom=0;whiteSpace=wrap;html=1;" vertex="1" parent="1">
          <mxGeometry x="544" y="455" width="186" height="98" as="geometry" />
        </mxCell>
        <mxCell id="h3I3Nr1SINvf36J9Y4_O-13" value="+ &amp;lt;&amp;lt;property&amp;gt;&amp;gt; string:name&lt;br style=&quot;border-color: var(--border-color);&quot;&gt;+ &amp;lt;&amp;lt;property&amp;gt;&amp;gt; string:surname&lt;br&gt;+ &amp;lt;&amp;lt;property&amp;gt;&amp;gt; string:username&lt;br style=&quot;border-color: var(--border-color);&quot;&gt;+ &amp;lt;&amp;lt;property&amp;gt;&amp;gt; string:email" style="text;strokeColor=none;fillColor=none;align=left;verticalAlign=top;spacingLeft=4;spacingRight=4;overflow=hidden;rotatable=0;points=[[0,0.5],[1,0.5]];portConstraint=eastwest;whiteSpace=wrap;html=1;" vertex="1" parent="h3I3Nr1SINvf36J9Y4_O-12">
          <mxGeometry y="26" width="186" height="64" as="geometry" />
        </mxCell>
        <mxCell id="h3I3Nr1SINvf36J9Y4_O-14" value="" style="line;strokeWidth=1;fillColor=none;align=left;verticalAlign=middle;spacingTop=-1;spacingLeft=3;spacingRight=3;rotatable=0;labelPosition=right;points=[];portConstraint=eastwest;strokeColor=inherit;" vertex="1" parent="h3I3Nr1SINvf36J9Y4_O-12">
          <mxGeometry y="90" width="186" height="8" as="geometry" />
        </mxCell>
        <mxCell id="h3I3Nr1SINvf36J9Y4_O-17" value="Article" style="swimlane;fontStyle=1;align=center;verticalAlign=top;childLayout=stackLayout;horizontal=1;startSize=26;horizontalStack=0;resizeParent=1;resizeParentMax=0;resizeLast=0;collapsible=1;marginBottom=0;whiteSpace=wrap;html=1;" vertex="1" parent="1">
          <mxGeometry x="150" y="140" width="230" height="148" as="geometry" />
        </mxCell>
        <mxCell id="h3I3Nr1SINvf36J9Y4_O-18" value="+ &amp;lt;&amp;lt;property&amp;gt;&amp;gt; int:Id&lt;br&gt;+ &amp;lt;&amp;lt;property&amp;gt;&amp;gt; string:name&lt;br&gt;+ &amp;lt;&amp;lt;property&amp;gt;&amp;gt; string:content&lt;br&gt;+ &amp;lt;&amp;lt;property&amp;gt;&amp;gt; bool:isPublic&lt;br&gt;+ &amp;lt;&amp;lt;property&amp;gt;&amp;gt; DateTime:lastModified&lt;br&gt;+ &amp;lt;&amp;lt;property&amp;gt;&amp;gt; string:image&lt;br&gt;+ &amp;lt;&amp;lt;property&amp;gt;&amp;gt; User:Creator" style="text;strokeColor=none;fillColor=none;align=left;verticalAlign=top;spacingLeft=4;spacingRight=4;overflow=hidden;rotatable=0;points=[[0,0.5],[1,0.5]];portConstraint=eastwest;whiteSpace=wrap;html=1;" vertex="1" parent="h3I3Nr1SINvf36J9Y4_O-17">
          <mxGeometry y="26" width="230" height="114" as="geometry" />
        </mxCell>
        <mxCell id="h3I3Nr1SINvf36J9Y4_O-19" value="" style="line;strokeWidth=1;fillColor=none;align=left;verticalAlign=middle;spacingTop=-1;spacingLeft=3;spacingRight=3;rotatable=0;labelPosition=right;points=[];portConstraint=eastwest;strokeColor=inherit;" vertex="1" parent="h3I3Nr1SINvf36J9Y4_O-17">
          <mxGeometry y="140" width="230" height="8" as="geometry" />
        </mxCell>
        <mxCell id="h3I3Nr1SINvf36J9Y4_O-20" value="Comment" style="swimlane;fontStyle=1;align=center;verticalAlign=top;childLayout=stackLayout;horizontal=1;startSize=26;horizontalStack=0;resizeParent=1;resizeParentMax=0;resizeLast=0;collapsible=1;marginBottom=0;whiteSpace=wrap;html=1;" vertex="1" parent="1">
          <mxGeometry x="150" y="300" width="230" height="98" as="geometry" />
        </mxCell>
        <mxCell id="h3I3Nr1SINvf36J9Y4_O-21" value="+ &amp;lt;&amp;lt;property&amp;gt;&amp;gt; int:Id&lt;br&gt;+ &amp;lt;&amp;lt;property&amp;gt;&amp;gt; string:content&lt;br&gt;+ &amp;lt;&amp;lt;property&amp;gt;&amp;gt; DateTime:date&lt;br&gt;+ &amp;lt;&amp;lt;property&amp;gt;&amp;gt; User:author" style="text;strokeColor=none;fillColor=none;align=left;verticalAlign=top;spacingLeft=4;spacingRight=4;overflow=hidden;rotatable=0;points=[[0,0.5],[1,0.5]];portConstraint=eastwest;whiteSpace=wrap;html=1;" vertex="1" parent="h3I3Nr1SINvf36J9Y4_O-20">
          <mxGeometry y="26" width="230" height="64" as="geometry" />
        </mxCell>
        <mxCell id="h3I3Nr1SINvf36J9Y4_O-22" value="" style="line;strokeWidth=1;fillColor=none;align=left;verticalAlign=middle;spacingTop=-1;spacingLeft=3;spacingRight=3;rotatable=0;labelPosition=right;points=[];portConstraint=eastwest;strokeColor=inherit;" vertex="1" parent="h3I3Nr1SINvf36J9Y4_O-20">
          <mxGeometry y="90" width="230" height="8" as="geometry" />
        </mxCell>
        <mxCell id="h3I3Nr1SINvf36J9Y4_O-26" value="User" style="swimlane;fontStyle=1;align=center;verticalAlign=top;childLayout=stackLayout;horizontal=1;startSize=26;horizontalStack=0;resizeParent=1;resizeParentMax=0;resizeLast=0;collapsible=1;marginBottom=0;whiteSpace=wrap;html=1;" vertex="1" parent="1">
          <mxGeometry x="150" y="510" width="230" height="108" as="geometry" />
        </mxCell>
        <mxCell id="h3I3Nr1SINvf36J9Y4_O-27" value="+ &amp;lt;&amp;lt;property&amp;gt;&amp;gt; string:name&lt;br&gt;+ &amp;lt;&amp;lt;property&amp;gt;&amp;gt; string:surname&lt;br&gt;+ &amp;lt;&amp;lt;property&amp;gt;&amp;gt; string:username&lt;br style=&quot;border-color: var(--border-color);&quot;&gt;+ &amp;lt;&amp;lt;property&amp;gt;&amp;gt; string:password&lt;br&gt;+ &amp;lt;&amp;lt;property&amp;gt;&amp;gt; string:email" style="text;strokeColor=none;fillColor=none;align=left;verticalAlign=top;spacingLeft=4;spacingRight=4;overflow=hidden;rotatable=0;points=[[0,0.5],[1,0.5]];portConstraint=eastwest;whiteSpace=wrap;html=1;" vertex="1" parent="h3I3Nr1SINvf36J9Y4_O-26">
          <mxGeometry y="26" width="230" height="74" as="geometry" />
        </mxCell>
        <mxCell id="h3I3Nr1SINvf36J9Y4_O-28" value="" style="line;strokeWidth=1;fillColor=none;align=left;verticalAlign=middle;spacingTop=-1;spacingLeft=3;spacingRight=3;rotatable=0;labelPosition=right;points=[];portConstraint=eastwest;strokeColor=inherit;" vertex="1" parent="h3I3Nr1SINvf36J9Y4_O-26">
          <mxGeometry y="100" width="230" height="8" as="geometry" />
        </mxCell>
        <mxCell id="h3I3Nr1SINvf36J9Y4_O-33" value="1.1" style="text;html=1;strokeColor=none;fillColor=none;align=center;verticalAlign=middle;whiteSpace=wrap;rounded=0;" vertex="1" parent="1">
          <mxGeometry x="220" y="470" width="60" height="30" as="geometry" />
        </mxCell>
        <mxCell id="h3I3Nr1SINvf36J9Y4_O-30" value="1.1" style="text;html=1;strokeColor=none;fillColor=none;align=center;verticalAlign=middle;whiteSpace=wrap;rounded=0;" vertex="1" parent="1">
          <mxGeometry x="80" y="258" width="60" height="30" as="geometry" />
        </mxCell>
        <mxCell id="h3I3Nr1SINvf36J9Y4_O-42" style="edgeStyle=orthogonalEdgeStyle;rounded=0;orthogonalLoop=1;jettySize=auto;html=1;entryX=0;entryY=0.689;entryDx=0;entryDy=0;entryPerimeter=0;" edge="1" parent="1" source="h3I3Nr1SINvf36J9Y4_O-18" target="h3I3Nr1SINvf36J9Y4_O-27">
          <mxGeometry relative="1" as="geometry">
            <Array as="points">
              <mxPoint x="120" y="223" />
              <mxPoint x="120" y="587" />
            </Array>
          </mxGeometry>
        </mxCell>
        <mxCell id="h3I3Nr1SINvf36J9Y4_O-44" style="edgeStyle=orthogonalEdgeStyle;rounded=0;orthogonalLoop=1;jettySize=auto;html=1;entryX=0.993;entryY=0.415;entryDx=0;entryDy=0;entryPerimeter=0;" edge="1" parent="1" source="h3I3Nr1SINvf36J9Y4_O-21" target="h3I3Nr1SINvf36J9Y4_O-18">
          <mxGeometry relative="1" as="geometry">
            <Array as="points">
              <mxPoint x="400" y="358" />
              <mxPoint x="400" y="213" />
            </Array>
          </mxGeometry>
        </mxCell>
        <mxCell id="h3I3Nr1SINvf36J9Y4_O-45" value="1.1" style="text;html=1;strokeColor=none;fillColor=none;align=center;verticalAlign=middle;whiteSpace=wrap;rounded=0;" vertex="1" parent="1">
          <mxGeometry x="380" y="288" width="60" height="30" as="geometry" />
        </mxCell>
        <mxCell id="h3I3Nr1SINvf36J9Y4_O-48" style="edgeStyle=orthogonalEdgeStyle;rounded=0;orthogonalLoop=1;jettySize=auto;html=1;entryX=0.5;entryY=0;entryDx=0;entryDy=0;" edge="1" parent="1" source="h3I3Nr1SINvf36J9Y4_O-21" target="h3I3Nr1SINvf36J9Y4_O-26">
          <mxGeometry relative="1" as="geometry">
            <Array as="points">
              <mxPoint x="265" y="450" />
              <mxPoint x="265" y="450" />
            </Array>
          </mxGeometry>
        </mxCell>
      </root>
    </mxGraphModel>
  </diagram>
</mxfile>
